<svg xmlns="http://www.w3.org/2000/svg" viewBox="0 0 192.6 170"><path d="M20.9 43.3h12.7V21.5h21.8V8.7H20.9zm139.7 0h12.8V8.7h-34.6v12.8h21.8zm0 105.2h-21.8v12.8h34.6v-34.6h-12.8zm-127-21.8H20.9v34.6h34.5v-12.8H33.6zM95.7 21.1H91v4.1h-8.6l7.3-7.4c2.3-2.3 3.8-4.2 4.6-5.6.8-1.4 1.2-2.8 1.2-4.3 0-2.4-.8-4.4-2.4-5.8C91.4.7 89.2 0 86.4 0c-3.2 0-5.5.9-7.1 2.6-1.6 1.8-2.3 4.4-2.3 8V12h4.8v-.8c0-2.5.3-4.3 1-5.3s1.9-1.6 3.5-1.6c1.3 0 2.3.3 3 .9.7.6 1.1 1.5 1.1 2.6 0 .9-.3 2-1 3.1-.6 1.1-1.7 2.5-3.2 4.2l-9.5 10.4v4h18.9v-8.4zm4.8 4.9c.8 1.3 1.9 2.4 3.2 3.1 1.3.7 2.9 1.1 4.6 1.1 1.9 0 3.6-.4 5-1.3 1.5-.9 2.5-2.1 3.3-3.8.3-.7.5-1.4.7-2.2.1-.8.2-1.8.2-3.2v-9.1c0-1.7-.1-3-.3-3.9-.2-.9-.5-1.7-1-2.5-.8-1.4-1.9-2.4-3.2-3.1-1.3-.7-2.9-1.1-4.6-1.1-1.7 0-3.3.4-4.6 1.1-1.3.7-2.4 1.8-3.2 3.1-.5.8-.8 1.7-1 2.6-.2 1-.3 2.5-.3 4.6v7.4c0 2.1.1 3.6.3 4.6.1.9.4 1.8.9 2.6zm3.7-14.2c0-2.8.3-4.7 1-5.7.6-1.1 1.7-1.6 3.2-1.6 1.5 0 2.6.5 3.2 1.6.6 1.1 1 3 1 5.7v6.6c0 2.7-.3 4.6-1 5.7-.6 1.1-1.7 1.6-3.2 1.6-1.5 0-2.6-.5-3.2-1.6-.6-1.1-1-3-1-5.7v-6.6zM86.9 140.4h-8.2v4h3.2v21h-3.4v4.1h11.8v-4.1h-3.4zm24.3 13.9c1.3-.4 2.3-1.1 3-2.2.7-1.1 1.1-2.4 1.1-4 0-2.5-.8-4.6-2.4-6-1.6-1.5-3.8-2.2-6.5-2.2-2.9 0-5.1.9-6.7 2.6-1.6 1.8-2.4 4.2-2.4 7.4v1.5h4.9v-.4c0-2.5.3-4.3 1-5.3s1.8-1.5 3.4-1.5c1.2 0 2.1.4 2.8 1.1.7.7 1 1.7 1 2.9 0 1.5-.4 2.6-1.2 3.4-.8.8-1.9 1.2-3.5 1.2h-.7v3.6h.5c1.6 0 2.9.4 3.9 1.2.9.8 1.4 2 1.4 3.4 0 1.3-.4 2.4-1.2 3.2-.8.9-1.9 1.3-3.1 1.3-1.5 0-2.7-.5-3.4-1.5-.7-1-1.1-2.6-1.2-4.8H97v1c0 3.2.8 5.6 2.4 7.2 1.6 1.6 4 2.5 7.1 2.5 2.9 0 5.2-.8 6.8-2.4 1.7-1.6 2.5-3.8 2.5-6.6 0-1.7-.4-3.2-1.2-4.3-.8-1.2-2-1.9-3.4-2.3zm-36.5-90H81v42.4h-6.3v8.2h44.8V97.5H110v9.2H91.6V87.9h15.7v-8.8H91.6V64.3h18.8v7.8h9.1v-16H74.7zm112.7 42.4l-14.8-21.9 14.7-20.5h4.1v-8.2H171v8.2h4.8l-8.5 13.3-8.3-13.3h4.5v-8.2h-21.6v8.2h5.1l14.4 21.5-14.8 20.9h-5.1v8.2h21.3v-8.2H158l8.8-13.8 8.6 13.8h-4.8v8.2h22v-8.2zm-132.9 8.2v-8.2h-6.2V63.2h6.2V55H31.4v8.2h6.3v43.5H16.8V63.2H23V55H0v8.2h6.2v51.7z"/></svg>