<?xml version="1.0" encoding="utf-8"?>
<!-- Generator: Adobe Illustrator 21.0.0, SVG Export Plug-In . SVG Version: 6.00 Build 0)  -->
<svg version="1.1" id="Layer_1" xmlns="http://www.w3.org/2000/svg" xmlns:xlink="http://www.w3.org/1999/xlink" x="0px" y="0px"
	 viewBox="0 0 78.4 38.3" style="enable-background:new 0 0 78.4 38.3;" xml:space="preserve">
<style type="text/css">
	.st0{fill:#333333;}
</style>
<g>
	<g>
		<path class="st0" d="M72.7,30.5h-4.3c-0.6,0-1-0.4-1-1s0.4-1,1-1h4.3c1.8,0,2.7-2,2.9-3.7c0.3-2.4,0.8-7.5,0.8-7.5
			c0,0,0.1-0.9-0.5-1.6c-0.5-0.6-1.4-1-2.7-1.1c-3.8-0.3-17.2-2.2-17.8-2.2c-0.2,0-0.4-0.1-0.5-0.2L43.7,2H10.6
			C10,2,8.7,2.6,7.9,3.6C7,4.9,3.2,12.9,2.5,18.9C2.1,22.2,2,26.6,2,28.5h6.7c0.6,0,1,0.4,1,1s-0.4,1-1,1H1c-0.3,0-0.5-0.1-0.7-0.3
			C0.1,30.1,0,29.8,0,29.5c0-0.1,0-6.3,0.5-10.9C1.3,12.2,5.2,4,6.3,2.4C7.5,0.9,9.4,0,10.6,0h33.4c0.2,0,0.5,0.1,0.7,0.3L56,10.4
			c2.1,0.3,13.9,1.9,17.4,2.2c1.8,0.1,3.2,0.8,4.1,1.8c1.1,1.3,1,2.9,1,3c0,0.2-0.5,5.1-0.8,7.6C77.1,28.4,75.2,30.5,72.7,30.5z"/>
	</g>
	<g>
		<path class="st0" d="M52.9,30.5H24.3c-0.6,0-1-0.4-1-1s0.4-1,1-1h28.6c0.6,0,1,0.4,1,1S53.4,30.5,52.9,30.5z"/>
	</g>
	<g>
		<rect x="3.4" y="10.4" class="st0" width="52.2" height="2"/>
	</g>
	<g>
		<path class="st0" d="M16.5,38.3c-4.8,0-8.8-3.9-8.8-8.8s3.9-8.8,8.8-8.8c4.8,0,8.8,3.9,8.8,8.8S21.4,38.3,16.5,38.3z M16.5,22.8
			c-3.7,0-6.8,3-6.8,6.8s3,6.8,6.8,6.8s6.8-3,6.8-6.8S20.3,22.8,16.5,22.8z"/>
	</g>
	<g>
		<path class="st0" d="M60.7,38.3c-4.8,0-8.8-3.9-8.8-8.8s3.9-8.8,8.8-8.8s8.8,3.9,8.8,8.8S65.5,38.3,60.7,38.3z M60.7,22.8
			c-3.7,0-6.8,3-6.8,6.8s3,6.8,6.8,6.8s6.8-3,6.8-6.8S64.4,22.8,60.7,22.8z"/>
	</g>
</g>
</svg>
