<?xml version="1.0" encoding="utf-8"?>
<!-- Generator: Adobe Illustrator 21.0.0, SVG Export Plug-In . SVG Version: 6.00 Build 0)  -->
<svg version="1.1" id="Layer_1" xmlns="http://www.w3.org/2000/svg" xmlns:xlink="http://www.w3.org/1999/xlink" x="0px" y="0px"
	 viewBox="0 0 30 30" style="enable-background:new 0 0 30 30;" xml:space="preserve">
<style type="text/css">
	.st0{fill:#999999;}
</style>
<g>
	<path id="XMLID_16_" class="st0" d="M16.2,22.7v-7h2.4l0.4-2.7h-2.7v-1.7c0-0.8,0.2-1.3,1.4-1.3l1.4,0V7.4c-0.3,0-1.1-0.1-2.1-0.1
		c-2.1,0-3.5,1.3-3.5,3.6v2H11v2.7h2.4v7H16.2z"/>
	<path id="XMLID_13_" class="st0" d="M15,2.7c4,0,4.5,0,6.1,0.1c1.5,0.1,2.3,0.3,2.8,0.5c0.7,0.3,1.2,0.6,1.7,1.1
		c0.5,0.5,0.8,1,1.1,1.7c0.2,0.5,0.4,1.3,0.5,2.8c0.1,1.6,0.1,2.1,0.1,6.1s0,4.5-0.1,6.1c-0.1,1.5-0.3,2.3-0.5,2.8
		c-0.3,0.7-0.6,1.2-1.1,1.7c-0.5,0.5-1,0.8-1.7,1.1c-0.5,0.2-1.3,0.4-2.8,0.5c-1.6,0.1-2.1,0.1-6.1,0.1s-4.5,0-6.1-0.1
		c-1.5-0.1-2.3-0.3-2.8-0.5c-0.7-0.3-1.2-0.6-1.7-1.1c-0.5-0.5-0.8-1-1.1-1.7c-0.2-0.5-0.4-1.3-0.5-2.8C2.7,19.5,2.7,19,2.7,15
		s0-4.5,0.1-6.1c0.1-1.5,0.3-2.3,0.5-2.8C3.6,5.5,3.9,5,4.4,4.4c0.5-0.5,1-0.8,1.7-1.1c0.5-0.2,1.3-0.4,2.8-0.5
		C10.5,2.7,11,2.7,15,2.7 M15,0c-4.1,0-4.6,0-6.2,0.1C7.2,0.2,6.1,0.4,5.2,0.8c-1,0.4-1.8,0.9-2.7,1.7C1.7,3.4,1.2,4.2,0.8,5.2
		c-0.4,1-0.6,2-0.7,3.6C0,10.4,0,10.9,0,15c0,4.1,0,4.6,0.1,6.2c0.1,1.6,0.3,2.7,0.7,3.6c0.4,1,0.9,1.8,1.7,2.7
		c0.8,0.8,1.7,1.3,2.7,1.7c1,0.4,2,0.6,3.6,0.7C10.4,30,10.9,30,15,30s4.6,0,6.2-0.1c1.6-0.1,2.7-0.3,3.6-0.7c1-0.4,1.8-0.9,2.7-1.7
		c0.8-0.8,1.3-1.7,1.7-2.7c0.4-1,0.6-2,0.7-3.6C30,19.6,30,19.1,30,15s0-4.6-0.1-6.2c-0.1-1.6-0.3-2.7-0.7-3.6
		c-0.4-1-0.9-1.8-1.7-2.7c-0.8-0.8-1.7-1.3-2.7-1.7c-1-0.4-2-0.6-3.6-0.7C19.6,0,19.1,0,15,0L15,0z"/>
</g>
</svg>
