<?xml version="1.0" encoding="utf-8"?>
<!-- Generator: Adobe Illustrator 21.0.0, SVG Export Plug-In . SVG Version: 6.00 Build 0)  -->
<svg version="1.1" id="Layer_1" xmlns="http://www.w3.org/2000/svg" xmlns:xlink="http://www.w3.org/1999/xlink" x="0px" y="0px"
	 viewBox="0 0 29.9 33.5" style="enable-background:new 0 0 29.9 33.5;" xml:space="preserve">
<style type="text/css">
	.st0{fill:#333333;}
</style>
<path class="st0" d="M29.8,13.8l-6.4-6.4l-3.3-3.3l-2.9-2.9l-0.4-0.4C16.3,0.3,15.7,0,15,0c-0.7,0-1.3,0.3-1.8,0.8L9.8,4.1h0L9,4.9
	v0L5.1,8.8l-3.6,3.6h0L0,13.9v0.5v19.2h29.9V14.4v-0.5L29.8,13.8z M1.9,13.7L14,1.6c0.5-0.5,1.4-0.5,2,0l12.6,12.6L20,22.9l-2.7-2.7
	l-0.4-0.4c-0.5-0.5-1.1-0.8-1.8-0.8c-0.7,0-1.3,0.3-1.8,0.8l-3.2,3.2l-8.6-8.6L1.9,13.7z M9.1,23.7L9.1,23.7L9.1,23.7l-7.9,7.9V16.8
	v-0.5v-0.2v-0.2L9.1,23.7z M2.2,32.4l0.6-0.6h0L14,20.5c0.5-0.5,1.4-0.5,2,0l10.9,10.9h0l0.7,0.7l0.3,0.3H2.2z M28.8,16.3v15.3
	L21,23.8l0,0l-0.1-0.1l7.9-7.9v0.3V16.3z"/>
</svg>
