<?xml version="1.0" encoding="utf-8"?>
<!-- Generator: Adobe Illustrator 21.0.0, SVG Export Plug-In . SVG Version: 6.00 Build 0)  -->
<svg version="1.1" id="Layer_1" xmlns="http://www.w3.org/2000/svg" xmlns:xlink="http://www.w3.org/1999/xlink" x="0px" y="0px"
	 viewBox="0 0 28.7 32.3" style="enable-background:new 0 0 28.7 32.3;" xml:space="preserve">
<style type="text/css">
	.st0{fill:#333333;}
</style>
<path class="st0" d="M22.7,32.3c-2.7,0-9.4-3.5-14.9-11C2.5,14.3,0,9.3,0,5.9c0-2.7,1.9-4,2.8-4.7L3.1,1c1.1-0.8,2.8-1,3.5-1
	c1.1,0,1.6,0.7,1.9,1.3c0.2,0.5,2.3,4.9,2.5,5.5c0.3,0.8,0.2,2.1-0.8,2.8l-0.2,0.1c-0.5,0.3-1.4,1-1.5,1.7c-0.1,0.4,0.1,0.8,0.4,1.2
	c1.6,2.2,6.7,8.5,7.6,9.3c0.7,0.7,1.6,0.8,2.3,0.2c0.6-0.5,0.9-0.9,0.9-0.9l0.1-0.1c0.1,0,0.6-0.4,1.4-0.4c0.6,0,1.2,0.2,1.8,0.6
	c1.5,1,5,3.4,5,3.4l0.1,0c0.4,0.4,1.1,1.5,0.3,2.9C27.6,29.3,25.2,32.3,22.7,32.3z M6.6,1.2C6,1.2,4.6,1.4,3.8,2L3.5,2.2
	C2.6,2.8,1.2,3.8,1.2,5.9c0,3.1,2.5,8,7.5,14.8c5.5,7.4,11.8,10.5,14,10.5c1.8,0,3.9-2.6,4.6-3.9c0.4-0.8,0.1-1.3,0-1.4
	c-0.4-0.3-3.6-2.4-5-3.4c-0.4-0.3-0.8-0.4-1.1-0.4c-0.3,0-0.5,0.1-0.6,0.2c-0.1,0.1-0.4,0.5-1,0.9c-1.1,0.9-2.7,0.8-3.8-0.3
	c-1-1-6.3-7.5-7.8-9.5c-0.5-0.7-0.7-1.4-0.6-2.1c0.2-1.3,1.4-2.1,2-2.5l0.2-0.1c0.6-0.4,0.4-1.1,0.4-1.4C9.7,6.7,7.7,2.3,7.4,1.8
	C7.2,1.4,7,1.2,6.6,1.2z"/>
</svg>
