<?xml version="1.0" encoding="utf-8"?>
<!-- Generator: Adobe Illustrator 21.0.0, SVG Export Plug-In . SVG Version: 6.00 Build 0)  -->
<svg version="1.1" id="Layer_1" xmlns="http://www.w3.org/2000/svg" xmlns:xlink="http://www.w3.org/1999/xlink" x="0px" y="0px"
	 viewBox="0 0 17.8 20" style="enable-background:new 0 0 17.8 20;" xml:space="preserve">
<style type="text/css">
	.st0{fill:#999999;}
</style>
<path class="st0" d="M14,20c-1.7,0-5.8-2.2-9.2-6.8C1.6,8.9,0,5.7,0,3.6C0,2,1.1,1.2,1.8,0.7l0.2-0.1C2.6,0.2,3.7,0,4.1,0
	c0.7,0,1,0.4,1.2,0.8c0.2,0.3,1.4,3.1,1.6,3.4C7,4.7,6.9,5.5,6.3,5.9L6.2,6c-0.3,0.2-0.9,0.6-1,1.1c0,0.2,0,0.5,0.2,0.7
	c1,1.3,4.1,5.2,4.7,5.8c0.4,0.4,1,0.5,1.4,0.2c0.4-0.3,0.6-0.5,0.6-0.5l0,0c0,0,0.3-0.3,0.9-0.3c0.4,0,0.7,0.1,1.1,0.4
	c1,0.6,3.1,2.1,3.1,2.1l0,0c0.3,0.2,0.7,0.9,0.2,1.8C17.1,18.1,15.6,20,14,20z"/>
</svg>
