<?xml version="1.0" encoding="utf-8"?>
<!-- Generator: Adobe Illustrator 21.0.0, SVG Export Plug-In . SVG Version: 6.00 Build 0)  -->
<svg version="1.1" id="Layer_1" xmlns="http://www.w3.org/2000/svg" xmlns:xlink="http://www.w3.org/1999/xlink" x="0px" y="0px"
	 viewBox="0 0 79.8 43.5" style="enable-background:new 0 0 79.8 43.5;" xml:space="preserve">
<style type="text/css">
	.st0{fill:#333333;}
</style>
<g>
	<g>
		<path class="st0" d="M76.9,38.3h-11v-2h11c0.5,0,0.9-0.4,0.9-0.9V16.7L75.2,5.1C74.5,2.9,73.7,2,72.3,2H4.9C3.3,2,2,3.3,2,4.9
			v30.5c0,0.5,0.4,0.9,0.9,0.9h8.4v2H2.9C1.3,38.3,0,37,0,35.4V4.9C0,2.2,2.2,0,4.9,0h67.4c3,0,4.2,2.6,4.8,4.6l2.6,12v18.8
			C79.8,37,78.5,38.3,76.9,38.3z"/>
	</g>
	<g>
		<rect x="21.8" y="36.3" class="st0" width="33.7" height="2"/>
	</g>
	<g>
		<path class="st0" d="M16.6,43.5c-3.4,0-6.2-2.8-6.2-6.2s2.8-6.2,6.2-6.2s6.2,2.8,6.2,6.2S20,43.5,16.6,43.5z M16.6,33.1
			c-2.3,0-4.2,1.9-4.2,4.2s1.9,4.2,4.2,4.2s4.2-1.9,4.2-4.2S18.9,33.1,16.6,33.1z"/>
	</g>
	<g>
		<path class="st0" d="M60.7,43.5c-3.4,0-6.2-2.8-6.2-6.2s2.8-6.2,6.2-6.2s6.2,2.8,6.2,6.2S64.1,43.5,60.7,43.5z M60.7,33.1
			c-2.3,0-4.2,1.9-4.2,4.2s1.9,4.2,4.2,4.2s4.2-1.9,4.2-4.2S63,33.1,60.7,33.1z"/>
	</g>
	<g>
		<rect x="1" y="18.2" class="st0" width="64.8" height="2"/>
	</g>
	<g>
		<rect x="64.8" y="1.2" class="st0" width="2" height="35.4"/>
	</g>
	<g>
		<rect x="65.8" y="25.9" class="st0" width="13" height="2"/>
	</g>
	<g>
		<rect x="20.8" y="1" class="st0" width="2" height="18.2"/>
	</g>
	<g>
		<rect x="41.5" y="1" class="st0" width="2" height="18.2"/>
	</g>
</g>
</svg>
