<?xml version="1.0" encoding="utf-8"?>
<!-- Generator: Adobe Illustrator 21.0.0, SVG Export Plug-In . SVG Version: 6.00 Build 0)  -->
<svg version="1.1" id="Layer_1" xmlns="http://www.w3.org/2000/svg" xmlns:xlink="http://www.w3.org/1999/xlink" x="0px" y="0px"
	 viewBox="0 0 192.6 170" style="enable-background:new 0 0 192.6 170;" xml:space="preserve">
<g>
	<polygon points="20.9,43.3 33.6,43.3 33.6,21.5 55.4,21.5 55.4,8.7 20.9,8.7 	"/>
	<polygon points="160.6,43.3 173.4,43.3 173.4,8.7 138.8,8.7 138.8,21.5 160.6,21.5 	"/>
	<polygon points="160.6,148.5 138.8,148.5 138.8,161.3 173.4,161.3 173.4,126.7 160.6,126.7 	"/>
	<polygon points="33.6,126.7 20.9,126.7 20.9,161.3 55.4,161.3 55.4,148.5 33.6,148.5 	"/>
	<path d="M95.7,21.1H91v4.1h-8.6l7.3-7.4c2.3-2.3,3.8-4.2,4.6-5.6c0.8-1.4,1.2-2.8,1.2-4.3c0-2.4-0.8-4.4-2.4-5.8
		C91.4,0.7,89.2,0,86.4,0c-3.2,0-5.5,0.9-7.1,2.6c-1.6,1.8-2.3,4.4-2.3,8c0,0.4,0,0.7,0,0.9c0,0.2,0,0.4,0,0.5l4.8,0v-0.8
		c0-2.5,0.3-4.3,1-5.3c0.7-1,1.9-1.6,3.5-1.6c1.3,0,2.3,0.3,3,0.9c0.7,0.6,1.1,1.5,1.1,2.6c0,0.9-0.3,2-1,3.1
		c-0.6,1.1-1.7,2.5-3.2,4.2l-9.5,10.4v4h18.9V21.1z"/>
	<path d="M100.5,26c0.8,1.3,1.9,2.4,3.2,3.1c1.3,0.7,2.9,1.1,4.6,1.1c1.9,0,3.6-0.4,5-1.3c1.5-0.9,2.5-2.1,3.3-3.8
		c0.3-0.7,0.5-1.4,0.7-2.2c0.1-0.8,0.2-1.8,0.2-3.2v-8.3v-0.8c0-1.7-0.1-3-0.3-3.9c-0.2-0.9-0.5-1.7-1-2.5c-0.8-1.4-1.9-2.4-3.2-3.1
		c-1.3-0.7-2.9-1.1-4.6-1.1c-1.7,0-3.3,0.4-4.6,1.1c-1.3,0.7-2.4,1.8-3.2,3.1c-0.5,0.8-0.8,1.7-1,2.6c-0.2,1-0.3,2.5-0.3,4.6v7.4
		c0,2.1,0.1,3.6,0.3,4.6C99.7,24.3,100,25.2,100.5,26z M104.2,11.8c0-2.8,0.3-4.7,1-5.7c0.6-1.1,1.7-1.6,3.2-1.6
		c1.5,0,2.6,0.5,3.2,1.6c0.6,1.1,1,3,1,5.7v6.6c0,2.7-0.3,4.6-1,5.7c-0.6,1.1-1.7,1.6-3.2,1.6c-1.5,0-2.6-0.5-3.2-1.6
		c-0.6-1.1-1-3-1-5.7V11.8z"/>
	<polygon points="86.9,140.4 78.7,140.4 78.7,144.4 81.9,144.4 81.9,165.4 78.5,165.4 78.5,169.5 90.3,169.5 90.3,165.4 86.9,165.4 
			"/>
	<path d="M111.2,154.3c1.3-0.4,2.3-1.1,3-2.2c0.7-1.1,1.1-2.4,1.1-4c0-2.5-0.8-4.6-2.4-6c-1.6-1.5-3.8-2.2-6.5-2.2
		c-2.9,0-5.1,0.9-6.7,2.6c-1.6,1.8-2.4,4.2-2.4,7.4c0,0.2,0,0.5,0,0.8c0,0.3,0,0.5,0,0.7h4.9V151c0-2.5,0.3-4.3,1-5.3
		c0.7-1,1.8-1.5,3.4-1.5c1.2,0,2.1,0.4,2.8,1.1c0.7,0.7,1,1.7,1,2.9c0,1.5-0.4,2.6-1.2,3.4c-0.8,0.8-1.9,1.2-3.5,1.2
		c-0.1,0-0.2,0-0.3,0c-0.1,0-0.3,0-0.4,0v3.6h0.5c1.6,0,2.9,0.4,3.9,1.2c0.9,0.8,1.4,2,1.4,3.4c0,1.3-0.4,2.4-1.2,3.2
		c-0.8,0.9-1.9,1.3-3.1,1.3c-1.5,0-2.7-0.5-3.4-1.5c-0.7-1-1.1-2.6-1.2-4.8H97c0,0.1,0,0.3,0,0.5c0,0.2,0,0.4,0,0.5
		c0,3.2,0.8,5.6,2.4,7.2c1.6,1.6,4,2.5,7.1,2.5c2.9,0,5.2-0.8,6.8-2.4c1.7-1.6,2.5-3.8,2.5-6.6c0-1.7-0.4-3.2-1.2-4.3
		C113.8,155.4,112.6,154.7,111.2,154.3z"/>
	<polygon points="74.7,64.3 81,64.3 81,106.7 74.7,106.7 74.7,114.9 119.5,114.9 119.5,97.5 110,97.5 110,106.7 91.6,106.7 
		91.6,87.9 107.3,87.9 107.3,79.1 91.6,79.1 91.6,64.3 110.4,64.3 110.4,72.1 119.5,72.1 119.5,56.1 74.7,56.1 	"/>
	<polygon points="187.4,106.7 172.6,84.8 187.3,64.3 191.4,64.3 191.4,56.1 171,56.1 171,64.3 175.8,64.3 167.3,77.6 159,64.3 
		163.5,64.3 163.5,56.1 141.9,56.1 141.9,64.3 147,64.3 161.4,85.8 146.6,106.7 141.5,106.7 141.5,114.9 162.8,114.9 162.8,106.7 
		158,106.7 166.8,92.9 175.4,106.7 170.6,106.7 170.6,114.9 192.6,114.9 192.6,106.7 	"/>
	<polygon points="54.5,114.9 54.5,106.7 48.3,106.7 48.3,63.2 54.5,63.2 54.5,55 31.4,55 31.4,63.2 37.7,63.2 37.7,106.7 
		16.8,106.7 16.8,63.2 23,63.2 23,55 0,55 0,63.2 6.2,63.2 6.2,113.9 6.2,113.9 6.2,114.9 	"/>
</g>
</svg>
